<?xml version="1.0" encoding="UTF-8" standalone="no"?>
<!DOCTYPE svg PUBLIC "-//W3C//DTD SVG 1.1//EN"
 "http://www.w3.org/Graphics/SVG/1.1/DTD/svg11.dtd">
<!-- Generated by graphviz version 2.36.0 (20140111.2315)
 -->
<!-- Title: G Pages: 1 -->
<svg width="1142pt" height="1374pt"
 viewBox="0.00 0.00 1142.00 1374.00" xmlns="http://www.w3.org/2000/svg" xmlns:xlink="http://www.w3.org/1999/xlink">
<g id="graph0" class="graph" transform="scale(1 1) rotate(0) translate(4 1370)">
<title>G</title>
<polygon fill="white" stroke="none" points="-4,4 -4,-1370 1138,-1370 1138,4 -4,4"/>
<g id="clust1" class="cluster"><title>cluster_Global</title>
<path fill="none" stroke="gray" d="M20,-206C20,-206 1114,-206 1114,-206 1120,-206 1126,-212 1126,-218 1126,-218 1126,-1346 1126,-1346 1126,-1352 1120,-1358 1114,-1358 1114,-1358 20,-1358 20,-1358 14,-1358 8,-1352 8,-1346 8,-1346 8,-218 8,-218 8,-212 14,-206 20,-206"/>
<text text-anchor="middle" x="567" y="-1345.2" font-family="Times,serif" font-size="11.00" fill="gray">Global</text>
</g>
<g id="clust2" class="cluster"><title>cluster_\WebinoDbDump</title>
<path fill="none" stroke="gray" d="M28,-214C28,-214 1106,-214 1106,-214 1112,-214 1118,-220 1118,-226 1118,-226 1118,-1318 1118,-1318 1118,-1324 1112,-1330 1106,-1330 1106,-1330 28,-1330 28,-1330 22,-1330 16,-1324 16,-1318 16,-1318 16,-226 16,-226 16,-220 22,-214 28,-214"/>
<text text-anchor="middle" x="567" y="-1317.2" font-family="Times,serif" font-size="11.00" fill="gray">WebinoDbDump</text>
</g>
<g id="clust3" class="cluster"><title>cluster_\WebinoDbDump\Db</title>
<path fill="none" stroke="gray" d="M36,-456C36,-456 1079,-456 1079,-456 1085,-456 1091,-462 1091,-468 1091,-468 1091,-1290 1091,-1290 1091,-1296 1085,-1302 1079,-1302 1079,-1302 36,-1302 36,-1302 30,-1302 24,-1296 24,-1290 24,-1290 24,-468 24,-468 24,-462 30,-456 36,-456"/>
<text text-anchor="middle" x="557.5" y="-1289.2" font-family="Times,serif" font-size="11.00" fill="gray">Db</text>
</g>
<g id="clust4" class="cluster"><title>cluster_\WebinoDbDump\Db\Sql</title>
<path fill="none" stroke="gray" d="M595,-464C595,-464 1047,-464 1047,-464 1053,-464 1059,-470 1059,-476 1059,-476 1059,-632 1059,-632 1059,-638 1053,-644 1047,-644 1047,-644 595,-644 595,-644 589,-644 583,-638 583,-632 583,-632 583,-476 583,-476 583,-470 589,-464 595,-464"/>
<text text-anchor="middle" x="821" y="-631.2" font-family="Times,serif" font-size="11.00" fill="gray">Sql</text>
</g>
<g id="clust5" class="cluster"><title>cluster_\WebinoDbDump\Db\Dump</title>
<path fill="none" stroke="gray" d="M44,-652C44,-652 1071,-652 1071,-652 1077,-652 1083,-658 1083,-664 1083,-664 1083,-1262 1083,-1262 1083,-1268 1077,-1274 1071,-1274 1071,-1274 44,-1274 44,-1274 38,-1274 32,-1268 32,-1262 32,-1262 32,-664 32,-664 32,-658 38,-652 44,-652"/>
<text text-anchor="middle" x="557.5" y="-1261.2" font-family="Times,serif" font-size="11.00" fill="gray">Dump</text>
</g>
<g id="clust6" class="cluster"><title>cluster_\WebinoDbDump\Db\Dump\Table</title>
<path fill="none" stroke="gray" d="M52,-1012C52,-1012 354,-1012 354,-1012 360,-1012 366,-1018 366,-1024 366,-1024 366,-1234 366,-1234 366,-1240 360,-1246 354,-1246 354,-1246 52,-1246 52,-1246 46,-1246 40,-1240 40,-1234 40,-1234 40,-1024 40,-1024 40,-1018 46,-1012 52,-1012"/>
<text text-anchor="middle" x="203" y="-1233.2" font-family="Times,serif" font-size="11.00" fill="gray">Table</text>
</g>
<g id="clust7" class="cluster"><title>cluster_\WebinoDbDump\Db\Dump\Platform</title>
<path fill="none" stroke="gray" d="M569,-758C569,-758 1063,-758 1063,-758 1069,-758 1075,-764 1075,-770 1075,-770 1075,-1222 1075,-1222 1075,-1228 1069,-1234 1063,-1234 1063,-1234 569,-1234 569,-1234 563,-1234 557,-1228 557,-1222 557,-1222 557,-770 557,-770 557,-764 563,-758 569,-758"/>
<text text-anchor="middle" x="816" y="-1221.2" font-family="Times,serif" font-size="11.00" fill="gray">Platform</text>
</g>
<g id="clust8" class="cluster"><title>cluster_\WebinoDbDump\Db\Dump\Platform\Mysql</title>
<path fill="none" stroke="gray" d="M577,-766C577,-766 1055,-766 1055,-766 1061,-766 1067,-772 1067,-778 1067,-778 1067,-1096 1067,-1096 1067,-1102 1061,-1108 1055,-1108 1055,-1108 577,-1108 577,-1108 571,-1108 565,-1102 565,-1096 565,-1096 565,-778 565,-778 565,-772 571,-766 577,-766"/>
<text text-anchor="middle" x="816" y="-1095.2" font-family="Times,serif" font-size="11.00" fill="gray">Mysql</text>
</g>
<g id="clust9" class="cluster"><title>cluster_\WebinoDbDump\Db\Dump\Platform\Mysql\Table</title>
<path fill="none" stroke="gray" d="M980,-900C980,-900 1044,-900 1044,-900 1050,-900 1056,-906 1056,-912 1056,-912 1056,-1068 1056,-1068 1056,-1074 1050,-1080 1044,-1080 1044,-1080 980,-1080 980,-1080 974,-1080 968,-1074 968,-1068 968,-1068 968,-912 968,-912 968,-906 974,-900 980,-900"/>
<text text-anchor="middle" x="1012" y="-1067.2" font-family="Times,serif" font-size="11.00" fill="gray">Table</text>
</g>
<g id="clust10" class="cluster"><title>cluster_\WebinoDbDump\Db\Dump\Platform\Mysql\Routine</title>
<path fill="none" stroke="gray" d="M585,-774C585,-774 1047,-774 1047,-774 1053,-774 1059,-780 1059,-786 1059,-786 1059,-834 1059,-834 1059,-840 1053,-846 1047,-846 1047,-846 585,-846 585,-846 579,-846 573,-840 573,-834 573,-834 573,-786 573,-786 573,-780 579,-774 585,-774"/>
<text text-anchor="middle" x="816" y="-833.2" font-family="Times,serif" font-size="11.00" fill="gray">Routine</text>
</g>
<g id="clust11" class="cluster"><title>cluster_\WebinoDbDump\Exception</title>
<path fill="none" stroke="gray" d="M575,-268C575,-268 1098,-268 1098,-268 1104,-268 1110,-274 1110,-280 1110,-280 1110,-436 1110,-436 1110,-442 1104,-448 1098,-448 1098,-448 575,-448 575,-448 569,-448 563,-442 563,-436 563,-436 563,-280 563,-280 563,-274 569,-268 575,-268"/>
<text text-anchor="middle" x="836.5" y="-435.2" font-family="Times,serif" font-size="11.00" fill="gray">Exception</text>
</g>
<!-- \\WebinoDbDump\\Db\\Sql\\SqlFile -->
<g id="node1" class="node"><title>\\WebinoDbDump\\Db\\Sql\\SqlFile</title>
<polygon fill="none" stroke="black" points="1044,-562 980,-562 980,-526 1044,-526 1044,-562"/>
<text text-anchor="middle" x="1012" y="-541.2" font-family="Courier,monospace" font-size="11.00">SqlFile</text>
</g>
<!-- \\WebinoDbDump\\Db\\Sql\\SqlInterface -->
<g id="node3" class="node"><title>\\WebinoDbDump\\Db\\Sql\\SqlInterface</title>
<polygon fill="none" stroke="black" points="689,-562 591,-562 591,-526 689,-526 689,-562"/>
<text text-anchor="middle" x="640" y="-541.2" font-family="Courier,monospace" font-size="11.00">SqlInterface</text>
</g>
<!-- \\WebinoDbDump\\Db\\Sql\\SqlFile&#45;&gt;\\WebinoDbDump\\Db\\Sql\\SqlInterface -->
<g id="edge2" class="edge"><title>\\WebinoDbDump\\Db\\Sql\\SqlFile&#45;&gt;\\WebinoDbDump\\Db\\Sql\\SqlInterface</title>
<path fill="none" stroke="black" stroke-dasharray="1,5" d="M979.773,-544C917.914,-544 778.932,-544 699.541,-544"/>
<polygon fill="none" stroke="black" points="699.221,-540.5 689.221,-544 699.22,-547.5 699.221,-540.5"/>
</g>
<!-- \\SplFileObject -->
<g id="node26" class="node"><title>\\SplFileObject</title>
<ellipse fill="none" stroke="black" cx="640" cy="-180" rx="61.99" ry="18"/>
<text text-anchor="middle" x="640" y="-176.3" font-family="Times,serif" font-size="14.00" fill="gray">\SplFileObject</text>
</g>
<!-- \\WebinoDbDump\\Db\\Sql\\SqlFile&#45;&gt;\\SplFileObject -->
<g id="edge1" class="edge"><title>\\WebinoDbDump\\Db\\Sql\\SqlFile&#45;&gt;\\SplFileObject</title>
<path fill="none" stroke="black" d="M979.96,-541.962C960.84,-539.105 937.167,-532.431 922,-517 840.051,-433.621 928.22,-350.887 850,-264 812.583,-222.437 751.75,-201.097 705.339,-190.356"/>
<polygon fill="none" stroke="black" points="705.889,-186.894 695.37,-188.159 704.382,-193.73 705.889,-186.894"/>
</g>
<!-- \\WebinoDbDump\\Db\\Sql\\SqlString -->
<g id="node2" class="node"><title>\\WebinoDbDump\\Db\\Sql\\SqlString</title>
<polygon fill="none" stroke="black" points="1050.5,-616 973.5,-616 973.5,-580 1050.5,-580 1050.5,-616"/>
<text text-anchor="middle" x="1012" y="-595.2" font-family="Courier,monospace" font-size="11.00">SqlString</text>
</g>
<!-- \\WebinoDbDump\\Db\\Sql\\SqlString&#45;&gt;\\WebinoDbDump\\Db\\Sql\\SqlInterface -->
<g id="edge3" class="edge"><title>\\WebinoDbDump\\Db\\Sql\\SqlString&#45;&gt;\\WebinoDbDump\\Db\\Sql\\SqlInterface</title>
<path fill="none" stroke="black" stroke-dasharray="1,5" d="M973.486,-592.525C908.782,-583.082 775.775,-563.67 699.046,-552.472"/>
<polygon fill="none" stroke="black" points="699.463,-548.995 689.063,-551.015 698.452,-555.922 699.463,-548.995"/>
</g>
<!-- \\Iterator -->
<g id="node30" class="node"><title>\\Iterator</title>
<ellipse fill="none" stroke="black" cx="295" cy="-180" rx="38.9931" ry="18"/>
<text text-anchor="middle" x="295" y="-176.3" font-family="Times,serif" font-size="14.00" fill="gray">\Iterator</text>
</g>
<!-- \\WebinoDbDump\\Db\\Sql\\SqlInterface&#45;&gt;\\Iterator -->
<g id="edge21" class="edge"><title>\\WebinoDbDump\\Db\\Sql\\SqlInterface&#45;&gt;\\Iterator</title>
<path fill="none" stroke="black" d="M590.891,-533.044C544.683,-520.375 475.379,-495.465 430,-452 356.403,-381.507 317.486,-262.081 302.886,-208.044"/>
<polygon fill="none" stroke="black" points="306.211,-206.926 300.287,-198.142 299.441,-208.703 306.211,-206.926"/>
</g>
<!-- \\WebinoDbDump\\Db\\Sql\\SqlTrait -->
<g id="node4" class="node"><title>\\WebinoDbDump\\Db\\Sql\\SqlTrait</title>
<polygon fill="none" stroke="black" points="1047.5,-508 976.5,-508 976.5,-472 1047.5,-472 1047.5,-508"/>
<text text-anchor="middle" x="1012" y="-487.2" font-family="Courier,monospace" font-size="11.00">SqlTrait</text>
</g>
<!-- \\WebinoDbDump\\Db\\Dump\\Table\\AbstractExtra -->
<g id="node5" class="node"><title>\\WebinoDbDump\\Db\\Dump\\Table\\AbstractExtra</title>
<polygon fill="none" stroke="black" points="347,-1056 243,-1056 243,-1020 347,-1020 347,-1056"/>
<text text-anchor="start" x="261" y="-1041.2" font-family="Courier,monospace" font-size="11.00">«abstract»</text>
<text text-anchor="start" x="251" y="-1029.2" font-family="Courier,monospace" font-size="11.00">AbstractExtra</text>
</g>
<!-- \\WebinoDbDump\\Db\\Dump\\Table\\ExtraInterface -->
<g id="node9" class="node"><title>\\WebinoDbDump\\Db\\Dump\\Table\\ExtraInterface</title>
<polygon fill="none" stroke="black" points="159.5,-1056 48.5,-1056 48.5,-1020 159.5,-1020 159.5,-1056"/>
<text text-anchor="middle" x="104" y="-1035.2" font-family="Courier,monospace" font-size="11.00">ExtraInterface</text>
</g>
<!-- \\WebinoDbDump\\Db\\Dump\\Table\\AbstractExtra&#45;&gt;\\WebinoDbDump\\Db\\Dump\\Table\\ExtraInterface -->
<g id="edge4" class="edge"><title>\\WebinoDbDump\\Db\\Dump\\Table\\AbstractExtra&#45;&gt;\\WebinoDbDump\\Db\\Dump\\Table\\ExtraInterface</title>
<path fill="none" stroke="black" stroke-dasharray="1,5" d="M242.854,-1038C220.374,-1038 193.716,-1038 169.862,-1038"/>
<polygon fill="none" stroke="black" points="169.83,-1034.5 159.83,-1038 169.83,-1041.5 169.83,-1034.5"/>
</g>
<!-- \\WebinoDbDump\\Db\\Dump\\Table\\AbstractTable -->
<g id="node6" class="node"><title>\\WebinoDbDump\\Db\\Dump\\Table\\AbstractTable</title>
<polygon fill="none" stroke="black" points="347,-1110 243,-1110 243,-1074 347,-1074 347,-1110"/>
<text text-anchor="start" x="261" y="-1095.2" font-family="Courier,monospace" font-size="11.00">«abstract»</text>
<text text-anchor="start" x="251" y="-1083.2" font-family="Courier,monospace" font-size="11.00">AbstractTable</text>
</g>
<!-- \\WebinoDbDump\\Db\\Dump\\Table\\AbstractColumns -->
<g id="node7" class="node"><title>\\WebinoDbDump\\Db\\Dump\\Table\\AbstractColumns</title>
<polygon fill="none" stroke="black" points="354,-1164 236,-1164 236,-1128 354,-1128 354,-1164"/>
<text text-anchor="start" x="261" y="-1149.2" font-family="Courier,monospace" font-size="11.00">«abstract»</text>
<text text-anchor="start" x="244" y="-1137.2" font-family="Courier,monospace" font-size="11.00">AbstractColumns</text>
</g>
<!-- \\WebinoDbDump\\Db\\Dump\\Table\\ColumnsInterface -->
<g id="node8" class="node"><title>\\WebinoDbDump\\Db\\Dump\\Table\\ColumnsInterface</title>
<polygon fill="none" stroke="black" points="357.5,-1218 232.5,-1218 232.5,-1182 357.5,-1182 357.5,-1218"/>
<text text-anchor="middle" x="295" y="-1197.2" font-family="Courier,monospace" font-size="11.00">ColumnsInterface</text>
</g>
<!-- \\WebinoDbDump\\Db\\Dump\\Platform\\Mysql\\Table\\Table -->
<g id="node10" class="node"><title>\\WebinoDbDump\\Db\\Dump\\Platform\\Mysql\\Table\\Table</title>
<polygon fill="none" stroke="black" points="1039,-998 985,-998 985,-962 1039,-962 1039,-998"/>
<text text-anchor="middle" x="1012" y="-977.2" font-family="Courier,monospace" font-size="11.00">Table</text>
</g>
<!-- \\WebinoDbDump\\Db\\Dump\\Platform\\Mysql\\Table\\Table&#45;&gt;\\WebinoDbDump\\Db\\Dump\\Table\\AbstractTable -->
<g id="edge5" class="edge"><title>\\WebinoDbDump\\Db\\Dump\\Platform\\Mysql\\Table\\Table&#45;&gt;\\WebinoDbDump\\Db\\Dump\\Table\\AbstractTable</title>
<path fill="none" stroke="black" d="M984.796,-981.637C965.133,-984.209 938.813,-990.707 922,-1007 850.238,-1076.54 931.19,-1161.74 850,-1220 812.085,-1247.21 470.887,-1242.5 430,-1220 383.44,-1194.38 407.085,-1152.71 366,-1119 362.916,-1116.47 359.568,-1114.16 356.064,-1112.05"/>
<polygon fill="none" stroke="black" points="357.555,-1108.88 347.091,-1107.22 354.236,-1115.04 357.555,-1108.88"/>
</g>
<!-- \\WebinoDbDump\\Db\\Dump\\Platform\\Mysql\\Table\\Columns -->
<g id="node11" class="node"><title>\\WebinoDbDump\\Db\\Dump\\Platform\\Mysql\\Table\\Columns</title>
<polygon fill="none" stroke="black" points="1044,-1052 980,-1052 980,-1016 1044,-1016 1044,-1052"/>
<text text-anchor="middle" x="1012" y="-1031.2" font-family="Courier,monospace" font-size="11.00">Columns</text>
</g>
<!-- \\WebinoDbDump\\Db\\Dump\\Platform\\Mysql\\Table\\Columns&#45;&gt;\\WebinoDbDump\\Db\\Dump\\Table\\AbstractColumns -->
<g id="edge6" class="edge"><title>\\WebinoDbDump\\Db\\Dump\\Platform\\Mysql\\Table\\Columns&#45;&gt;\\WebinoDbDump\\Db\\Dump\\Table\\AbstractColumns</title>
<path fill="none" stroke="black" d="M1002.94,-1052.08C983.526,-1093.17 929.767,-1193.2 850,-1234 767.187,-1276.36 732.901,-1230.63 641,-1245"/>
<path fill="none" stroke="black" d="M639,-1245C547.099,-1259.37 515.419,-1270.82 430,-1234 393.915,-1218.45 399.193,-1194.03 366,-1173 363.576,-1171.46 361.051,-1169.99 358.46,-1168.59"/>
<polygon fill="none" stroke="black" points="359.954,-1165.42 349.448,-1164.05 356.808,-1171.67 359.954,-1165.42"/>
</g>
<!-- \\WebinoDbDump\\Db\\Dump\\Platform\\Mysql\\Table\\Columns&#45;&gt;\\WebinoDbDump\\Db\\Dump\\Table\\ColumnsInterface -->
<g id="edge7" class="edge"><title>\\WebinoDbDump\\Db\\Dump\\Platform\\Mysql\\Table\\Columns&#45;&gt;\\WebinoDbDump\\Db\\Dump\\Table\\ColumnsInterface</title>
<path fill="none" stroke="black" stroke-dasharray="1,5" d="M639,-1245C544.409,-1259.79 434.623,-1238.71 365.243,-1220.7"/>
<polygon fill="none" stroke="black" points="365.869,-1217.25 355.306,-1218.07 364.077,-1224.01 365.869,-1217.25"/>
</g>
<!-- \\WebinoDbDump\\Db\\Dump\\Platform\\Mysql\\Table\\Triggers -->
<g id="node12" class="node"><title>\\WebinoDbDump\\Db\\Dump\\Platform\\Mysql\\Table\\Triggers</title>
<polygon fill="none" stroke="black" points="1047.5,-944 976.5,-944 976.5,-908 1047.5,-908 1047.5,-944"/>
<text text-anchor="middle" x="1012" y="-923.2" font-family="Courier,monospace" font-size="11.00">Triggers</text>
</g>
<!-- \\WebinoDbDump\\Db\\Dump\\Platform\\Mysql\\Table\\Triggers&#45;&gt;\\WebinoDbDump\\Db\\Dump\\Table\\AbstractExtra -->
<g id="edge8" class="edge"><title>\\WebinoDbDump\\Db\\Dump\\Platform\\Mysql\\Table\\Triggers&#45;&gt;\\WebinoDbDump\\Db\\Dump\\Table\\AbstractExtra</title>
<path fill="none" stroke="black" d="M976.417,-924.076C958.615,-921.551 937.465,-916.004 922,-904 868.592,-862.546 908.027,-804.694 850,-770 829.973,-758.026 449.849,-757.733 430,-770 343.116,-823.697 310.682,-952.677 300.284,-1009.87"/>
<polygon fill="none" stroke="black" points="296.789,-1009.55 298.54,-1020 303.687,-1010.74 296.789,-1009.55"/>
</g>
<!-- \\WebinoDbDump\\Db\\Dump\\Platform\\Mysql\\Routine\\Procedure -->
<g id="node13" class="node"><title>\\WebinoDbDump\\Db\\Dump\\Platform\\Mysql\\Routine\\Procedure</title>
<polygon fill="none" stroke="black" points="1050.5,-818 973.5,-818 973.5,-782 1050.5,-782 1050.5,-818"/>
<text text-anchor="middle" x="1012" y="-797.2" font-family="Courier,monospace" font-size="11.00">Procedure</text>
</g>
<!-- \\WebinoDbDump\\Db\\Dump\\Platform\\Mysql\\Routine\\AbstractRoutine -->
<g id="node14" class="node"><title>\\WebinoDbDump\\Db\\Dump\\Platform\\Mysql\\Routine\\AbstractRoutine</title>
<polygon fill="none" stroke="black" points="699,-818 581,-818 581,-782 699,-782 699,-818"/>
<text text-anchor="start" x="606" y="-803.2" font-family="Courier,monospace" font-size="11.00">«abstract»</text>
<text text-anchor="start" x="589" y="-791.2" font-family="Courier,monospace" font-size="11.00">AbstractRoutine</text>
</g>
<!-- \\WebinoDbDump\\Db\\Dump\\Platform\\Mysql\\Routine\\Procedure&#45;&gt;\\WebinoDbDump\\Db\\Dump\\Platform\\Mysql\\Routine\\AbstractRoutine -->
<g id="edge9" class="edge"><title>\\WebinoDbDump\\Db\\Dump\\Platform\\Mysql\\Routine\\Procedure&#45;&gt;\\WebinoDbDump\\Db\\Dump\\Platform\\Mysql\\Routine\\AbstractRoutine</title>
<path fill="none" stroke="black" d="M973.486,-800C911.596,-800 787.211,-800 709.363,-800"/>
<polygon fill="none" stroke="black" points="709.169,-796.5 699.169,-800 709.169,-803.5 709.169,-796.5"/>
</g>
<!-- \\WebinoDbDump\\Db\\Dump\\Platform\\Mysql\\Routine\\AbstractRoutine&#45;&gt;\\WebinoDbDump\\Db\\Dump\\Table\\AbstractExtra -->
<g id="edge10" class="edge"><title>\\WebinoDbDump\\Db\\Dump\\Platform\\Mysql\\Routine\\AbstractRoutine&#45;&gt;\\WebinoDbDump\\Db\\Dump\\Table\\AbstractExtra</title>
<path fill="none" stroke="black" d="M580.934,-792.992C536.337,-790.542 474.972,-793.792 430,-822 359.471,-866.238 320.121,-962.58 304.298,-1010.21"/>
<polygon fill="none" stroke="black" points="300.922,-1009.27 301.192,-1019.86 307.586,-1011.42 300.922,-1009.27"/>
</g>
<!-- \\WebinoDbDump\\Db\\Dump\\Platform\\Mysql\\Mysql -->
<g id="node15" class="node"><title>\\WebinoDbDump\\Db\\Dump\\Platform\\Mysql\\Mysql</title>
<polygon fill="none" stroke="black" points="1039,-890 985,-890 985,-854 1039,-854 1039,-890"/>
<text text-anchor="middle" x="1012" y="-869.2" font-family="Courier,monospace" font-size="11.00">Mysql</text>
</g>
<!-- \\WebinoDbDump\\Db\\Dump\\Platform\\AbstractPlatform -->
<g id="node16" class="node"><title>\\WebinoDbDump\\Db\\Dump\\Platform\\AbstractPlatform</title>
<polygon fill="none" stroke="black" points="702.5,-1152 577.5,-1152 577.5,-1116 702.5,-1116 702.5,-1152"/>
<text text-anchor="start" x="606" y="-1137.2" font-family="Courier,monospace" font-size="11.00">«abstract»</text>
<text text-anchor="start" x="585.5" y="-1125.2" font-family="Courier,monospace" font-size="11.00">AbstractPlatform</text>
</g>
<!-- \\WebinoDbDump\\Db\\Dump\\Platform\\Mysql\\Mysql&#45;&gt;\\WebinoDbDump\\Db\\Dump\\Platform\\AbstractPlatform -->
<g id="edge11" class="edge"><title>\\WebinoDbDump\\Db\\Dump\\Platform\\Mysql\\Mysql&#45;&gt;\\WebinoDbDump\\Db\\Dump\\Platform\\AbstractPlatform</title>
<path fill="none" stroke="black" d="M984.961,-875.907C966.598,-879.391 941.841,-885.593 922,-896 812.862,-953.245 708.756,-1059.23 663.986,-1108.09"/>
<polygon fill="none" stroke="black" points="661.205,-1105.95 657.07,-1115.7 666.386,-1110.65 661.205,-1105.95"/>
</g>
<!-- \\WebinoDbDump\\Db\\Dump\\Platform\\PlatformInterface -->
<g id="node17" class="node"><title>\\WebinoDbDump\\Db\\Dump\\Platform\\PlatformInterface</title>
<polygon fill="none" stroke="black" points="705.5,-1206 574.5,-1206 574.5,-1170 705.5,-1170 705.5,-1206"/>
<text text-anchor="middle" x="640" y="-1185.2" font-family="Courier,monospace" font-size="11.00">PlatformInterface</text>
</g>
<!-- \\WebinoDbDump\\Db\\Dump\\Platform\\Mysql\\Mysql&#45;&gt;\\WebinoDbDump\\Db\\Dump\\Platform\\PlatformInterface -->
<g id="edge12" class="edge"><title>\\WebinoDbDump\\Db\\Dump\\Platform\\Mysql\\Mysql&#45;&gt;\\WebinoDbDump\\Db\\Dump\\Platform\\PlatformInterface</title>
<path fill="none" stroke="black" stroke-dasharray="1,5" d="M984.985,-872.343C965.159,-874.009 938.537,-879.494 922,-896 835.618,-982.219 941.998,-1080.8 850,-1161 813.797,-1192.56 759.765,-1198.85 715.71,-1197.49"/>
<polygon fill="none" stroke="black" points="715.755,-1193.99 705.61,-1197.04 715.444,-1200.98 715.755,-1193.99"/>
</g>
<!-- \\WebinoDbDump\\Db\\Dump\\Adapter -->
<g id="node18" class="node"><title>\\WebinoDbDump\\Db\\Dump\\Adapter</title>
<polygon fill="none" stroke="black" points="1044,-750 980,-750 980,-714 1044,-714 1044,-750"/>
<text text-anchor="middle" x="1012" y="-729.2" font-family="Courier,monospace" font-size="11.00">Adapter</text>
</g>
<!-- \\WebinoDbDump\\Db\\Dump\\Dump -->
<g id="node19" class="node"><title>\\WebinoDbDump\\Db\\Dump\\Dump</title>
<polygon fill="none" stroke="black" points="1039,-696 985,-696 985,-660 1039,-660 1039,-696"/>
<text text-anchor="middle" x="1012" y="-675.2" font-family="Courier,monospace" font-size="11.00">Dump</text>
</g>
<!-- \\WebinoDbDump\\Db\\Dump\\DumpInterface -->
<g id="node20" class="node"><title>\\WebinoDbDump\\Db\\Dump\\DumpInterface</title>
<polygon fill="none" stroke="black" points="692,-696 588,-696 588,-660 692,-660 692,-696"/>
<text text-anchor="middle" x="640" y="-675.2" font-family="Courier,monospace" font-size="11.00">DumpInterface</text>
</g>
<!-- \\WebinoDbDump\\Db\\Dump\\Dump&#45;&gt;\\WebinoDbDump\\Db\\Dump\\DumpInterface -->
<g id="edge13" class="edge"><title>\\WebinoDbDump\\Db\\Dump\\Dump&#45;&gt;\\WebinoDbDump\\Db\\Dump\\DumpInterface</title>
<path fill="none" stroke="black" stroke-dasharray="1,5" d="M984.982,-678C926.774,-678 784.713,-678 702.513,-678"/>
<polygon fill="none" stroke="black" points="702.306,-674.5 692.306,-678 702.306,-681.5 702.306,-674.5"/>
</g>
<!-- \\WebinoDbDump\\Exception\\InvalidArgumentException -->
<g id="node21" class="node"><title>\\WebinoDbDump\\Exception\\InvalidArgumentException</title>
<polygon fill="none" stroke="black" points="1101.5,-420 922.5,-420 922.5,-384 1101.5,-384 1101.5,-420"/>
<text text-anchor="middle" x="1012" y="-399.2" font-family="Courier,monospace" font-size="11.00">InvalidArgumentException</text>
</g>
<!-- \\WebinoDbDump\\Exception\\ExceptionInterface -->
<g id="node24" class="node"><title>\\WebinoDbDump\\Exception\\ExceptionInterface</title>
<polygon fill="none" stroke="black" points="709,-366 571,-366 571,-330 709,-330 709,-366"/>
<text text-anchor="middle" x="640" y="-345.2" font-family="Courier,monospace" font-size="11.00">ExceptionInterface</text>
</g>
<!-- \\WebinoDbDump\\Exception\\InvalidArgumentException&#45;&gt;\\WebinoDbDump\\Exception\\ExceptionInterface -->
<g id="edge16" class="edge"><title>\\WebinoDbDump\\Exception\\InvalidArgumentException&#45;&gt;\\WebinoDbDump\\Exception\\ExceptionInterface</title>
<path fill="none" stroke="black" stroke-dasharray="1,5" d="M922.376,-389.066C860.533,-380.04 778.756,-368.105 719.309,-359.429"/>
<polygon fill="none" stroke="black" points="719.625,-355.938 709.224,-357.957 718.614,-362.865 719.625,-355.938"/>
</g>
<!-- \\InvalidArgumentException -->
<g id="node28" class="node"><title>\\InvalidArgumentException</title>
<ellipse fill="none" stroke="black" cx="640" cy="-126" rx="109.681" ry="18"/>
<text text-anchor="middle" x="640" y="-122.3" font-family="Times,serif" font-size="14.00" fill="gray">\InvalidArgumentException</text>
</g>
<!-- \\WebinoDbDump\\Exception\\InvalidArgumentException&#45;&gt;\\InvalidArgumentException -->
<g id="edge15" class="edge"><title>\\WebinoDbDump\\Exception\\InvalidArgumentException&#45;&gt;\\InvalidArgumentException</title>
<path fill="none" stroke="black" d="M933.465,-383.957C929.327,-381.361 925.458,-378.392 922,-375 847.958,-302.357 929.812,-219.251 850,-153 821.373,-129.237 782.512,-120.092 746.063,-117.702"/>
<polygon fill="none" stroke="black" points="746.017,-114.195 735.857,-117.2 745.673,-121.187 746.017,-114.195"/>
</g>
<!-- \\WebinoDbDump\\Exception\\RuntimeException -->
<g id="node22" class="node"><title>\\WebinoDbDump\\Exception\\RuntimeException</title>
<polygon fill="none" stroke="black" points="1074.5,-366 949.5,-366 949.5,-330 1074.5,-330 1074.5,-366"/>
<text text-anchor="middle" x="1012" y="-345.2" font-family="Courier,monospace" font-size="11.00">RuntimeException</text>
</g>
<!-- \\WebinoDbDump\\Exception\\RuntimeException&#45;&gt;\\WebinoDbDump\\Exception\\ExceptionInterface -->
<g id="edge18" class="edge"><title>\\WebinoDbDump\\Exception\\RuntimeException&#45;&gt;\\WebinoDbDump\\Exception\\ExceptionInterface</title>
<path fill="none" stroke="black" stroke-dasharray="1,5" d="M949.487,-348C886.452,-348 788.217,-348 719.586,-348"/>
<polygon fill="none" stroke="black" points="719.26,-344.5 709.26,-348 719.26,-351.5 719.26,-344.5"/>
</g>
<!-- \\RuntimeException -->
<g id="node29" class="node"><title>\\RuntimeException</title>
<ellipse fill="none" stroke="black" cx="640" cy="-72" rx="79.0865" ry="18"/>
<text text-anchor="middle" x="640" y="-68.3" font-family="Times,serif" font-size="14.00" fill="gray">\RuntimeException</text>
</g>
<!-- \\WebinoDbDump\\Exception\\RuntimeException&#45;&gt;\\RuntimeException -->
<g id="edge17" class="edge"><title>\\WebinoDbDump\\Exception\\RuntimeException&#45;&gt;\\RuntimeException</title>
<path fill="none" stroke="black" d="M949.267,-337.792C939.207,-333.873 929.607,-328.463 922,-321 847.958,-248.357 929.812,-165.251 850,-99 814.295,-69.3617 762.669,-62.4639 719.661,-63.0485"/>
<polygon fill="none" stroke="black" points="719.397,-59.5543 709.496,-63.3256 719.588,-66.5517 719.397,-59.5543"/>
</g>
<!-- \\WebinoDbDump\\Exception\\SqlQueryException -->
<g id="node23" class="node"><title>\\WebinoDbDump\\Exception\\SqlQueryException</title>
<polygon fill="none" stroke="black" points="1077.5,-312 946.5,-312 946.5,-276 1077.5,-276 1077.5,-312"/>
<text text-anchor="middle" x="1012" y="-291.2" font-family="Courier,monospace" font-size="11.00">SqlQueryException</text>
</g>
<!-- \\WebinoDbDump\\Exception\\SqlQueryException&#45;&gt;\\WebinoDbDump\\Exception\\ExceptionInterface -->
<g id="edge20" class="edge"><title>\\WebinoDbDump\\Exception\\SqlQueryException&#45;&gt;\\WebinoDbDump\\Exception\\ExceptionInterface</title>
<path fill="none" stroke="black" stroke-dasharray="1,5" d="M946.128,-303.468C882.946,-312.689 786.83,-326.717 719.398,-336.558"/>
<polygon fill="none" stroke="black" points="718.638,-333.132 709.248,-338.039 719.649,-340.059 718.638,-333.132"/>
</g>
<!-- \\WebinoDbDump\\Exception\\SqlQueryException&#45;&gt;\\RuntimeException -->
<g id="edge19" class="edge"><title>\\WebinoDbDump\\Exception\\SqlQueryException&#45;&gt;\\RuntimeException</title>
<path fill="none" stroke="black" d="M946.206,-285.667C937.404,-282.431 929.005,-278.013 922,-272 858.808,-217.753 916.176,-149.563 850,-99 814.012,-71.5023 763.957,-64.2849 721.855,-64.1641"/>
<polygon fill="none" stroke="black" points="721.578,-60.6667 711.616,-64.2716 721.652,-67.6663 721.578,-60.6667"/>
</g>
<!-- \\WebinoDbDump\\Module -->
<g id="node25" class="node"><title>\\WebinoDbDump\\Module</title>
<polygon fill="none" stroke="black" points="1040.5,-258 983.5,-258 983.5,-222 1040.5,-222 1040.5,-258"/>
<text text-anchor="middle" x="1012" y="-237.2" font-family="Courier,monospace" font-size="11.00">Module</text>
</g>
<!-- \\Zend\\ModuleManager\\Feature\\ConfigProviderInterface -->
<g id="node27" class="node"><title>\\Zend\\ModuleManager\\Feature\\ConfigProviderInterface</title>
<ellipse fill="none" stroke="black" cx="640" cy="-18" rx="209.863" ry="18"/>
<text text-anchor="middle" x="640" y="-14.3" font-family="Times,serif" font-size="14.00" fill="gray">\Zend\ModuleManager\Feature\ConfigProviderInterface</text>
</g>
<!-- \\WebinoDbDump\\Module&#45;&gt;\\Zend\\ModuleManager\\Feature\\ConfigProviderInterface -->
<g id="edge14" class="edge"><title>\\WebinoDbDump\\Module&#45;&gt;\\Zend\\ModuleManager\\Feature\\ConfigProviderInterface</title>
<path fill="none" stroke="black" stroke-dasharray="1,5" d="M1002.14,-221.884C981.619,-182.113 926.671,-87.3391 850,-45 840.559,-39.7867 830.522,-35.4161 820.15,-31.763"/>
<polygon fill="none" stroke="black" points="821.132,-28.4015 810.539,-28.6064 818.947,-35.052 821.132,-28.4015"/>
</g>
</g>
</svg>
